<svg xmlns="http://www.w3.org/2000/svg" width="400" height="400" viewBox="0 0 400 400">
  <g id="グループ_2" data-name="グループ 2" transform="translate(-795 -370)">
    <g id="base_logo" transform="translate(868.6 431.089)">
      <g id="グループ_1" data-name="グループ 1" transform="translate(1.4 1)">
        <path id="パス_5" data-name="パス 5" d="M126.4,249.652H1.4L64.02,135.126,126.4,20.6l62.62,114.526L251.4,249.652Z" transform="translate(-1.4 26.068)" fill="#fce7c6"/>
        <path id="パス_6" data-name="パス 6" d="M69.377,48.62,91.758,8.381,88.187,6.238,69.853,39.572V1H65.805V39.81L47.472,6.238,43.9,8.143,65.805,48.62l1.9-.952h0Z" transform="translate(57.292 -1)" fill="#9a3041"/>
        <path id="パス_7" data-name="パス 7" d="M21.376,118.22,5.9,146.553H67.568L51.853,118.22,36.615,90.6Z" transform="translate(4.814 122.737)" fill="#29836f"/>
        <path id="パス_8" data-name="パス 8" d="M56.476,118.22,41,146.553h61.668L86.953,118.22,71.715,90.6Z" transform="translate(53.288 122.737)" fill="#ee93a1"/>
        <path id="パス_9" data-name="パス 9" d="M91.576,118.22,76.1,146.553h61.668L122.053,118.22,106.815,90.6Z" transform="translate(101.761 122.737)" fill="#7ac7b6"/>
      </g>
    </g>
    <rect id="長方形_2" data-name="長方形 2" width="400" height="400" transform="translate(795 370)" fill="none"/>
  </g>
</svg>
