<svg xmlns="http://www.w3.org/2000/svg" width="493" height="542.8" viewBox="0 0 493 542.8">
  <g id="グループ_4" data-name="グループ 4" transform="translate(-310.401 62)">
    <path id="前面オブジェクトで型抜き_3" data-name="前面オブジェクトで型抜き 3" d="M-964.6,1608.8h-493l123.485-225.461,123.021-225.465-3.766,1.877-43.2-79.686,7.04-3.755,36.155,66.1V1066h7.983v75.931l36.16-65.621,7.036,4.223-44.138,79.218-3.274-1.877,123.477,225.465L-964.6,1608.793Zm-81.7-122.813-30.049,54.374-30.514,55.784h121.6l-30.992-55.784-30.049-54.374Zm-164.8,0-30.049,54.374-30.523,55.779h121.609l-30.988-55.779-30.049-54.374Zm-164.8,0-30.049,54.374-30.519,55.784h121.609l-30.992-55.784-30.049-54.374Z" transform="translate(1768.001 -1128)" fill="#212121"/>
  </g>
</svg>
