<svg xmlns="http://www.w3.org/2000/svg" width="1191.28" height="72.911" viewBox="0 0 1191.28 72.911">
  <path id="パス_2" data-name="パス 2" d="M38.64-42.48c0-1.44,4.8-1.6,5.84-1.6,4.72,0,9.44.48,14.16.48,2.88,0,11.84.08,12.08-4.24.56-9.76-7.68-8.08-13.36-8.08l-8.56.08c-2.16,0-10.16-.24-10.16-3.36,0-1.28,0-3.28-1.2-4.08-1.04-.72-4.88-.56-6.24-.56-8.64,0-4.72,4.96-7.12,7.12C20.72-53.76,12-57.28,10-52.8c-.56,1.2-.56,3.92-.56,5.28,0,3.2,2.24,3.84,5.04,3.84,1.84,0,3.6-.32,5.44-.32s4.56.32,4.56,2.64C24.48-34.8,5.12-32.88,5.12-16c0,10.56,9.44,18,19.52,18C39.6,2,49.28-9.28,57.44-20.24c.32-.4,1.28-1.76,1.84-1.76.72,0,1.04,2.16,1.04,2.72,0,2.4-.24,4.08-1.92,5.92-2.48,2.64-5.52,4.32-8.48,6.4C49.04-6.32,48-5.44,48-4.24c0,2.56,1.92,9.44,5.2,9.44,2.32,0,5.76-2,7.76-3.2A44.766,44.766,0,0,0,64.88-.88c.96-.8,2-1.6,2.96-2.48,4.48-4.4,7.52-10.24,7.52-16.56,0-7.84-5.36-13.92-12.24-17.04a31.712,31.712,0,0,0-9.28-2.72c-4.48-.4-9.44-.32-13.76-1.28-.32-.08-1.2-.24-1.36-.56C38.64-41.68,38.64-41.84,38.64-42.48Zm6.32,14.8c0,1.52-4.24,7.44-5.84,7.44l-.48-.24v-3.76c0-3.52,1.68-3.68,4.72-3.68h1.12ZM19.84-15.92c0-1.36,1.6-5.6,3.28-5.6,1.52,0,1.52,4.08,1.52,5.12s.16,5.2-1.36,5.2C21.04-11.2,19.84-14,19.84-15.92Zm85.92-47.76c-9.6,0-5.76,4.96-9.04,8.48a4.573,4.573,0,0,1-2.4,1.2C87.2-52.4,84-55.6,84-45.52c0,2.48.4,4.24,3.28,4.24.48,0,.96-.08,1.44-.08,1.6,0,3.04.08,3.04,2.08,0,3.44-1.44,6.64-2.64,9.84h.08C87.92-26.48,84-14.16,84-11.28c0,3.12,6.8,5.76,9.44,5.76,8.24,0,10.72-29.76,16.88-34.88,1.52-1.28,2.32-.8,4.32-.8,1.28,0,3.52.08,4.8.08,3.6,0,4.48-3.2,4.48-6.32,0-4.08-.56-6.88-5.36-6.88-.96,0-5.92.08-5.92-1.44s.64-2.8.64-4.32c0-2.08-1.68-3.04-3.52-2.96A29.652,29.652,0,0,0,105.76-63.68ZM155.68-9.92a3.985,3.985,0,0,0-1.44-2.64c-2.16-2.24-4.56-4.24-6.8-6.48a10.6,10.6,0,0,1-2.4-3.52c-.56-1.76-.56-6.4-.56-8.32,0-1.12-.08-2.32-.08-3.44,0-1.92,0-6.56,2.64-6.56,1.76,0,3.44.24,5.2.24,4,0,4.24-3.28,4.24-6.48,0-7.28-14.64-6.88-19.52-6.88-6.24,0-8.48,2.88-8.48,8.96,0,2.24.24,4.56.24,6.8,0,1.52.32,10.4-1.68,10.4-1.36,0-2.8-.32-4.16-.32-9.52,0-21.12,4-21.12,15.28,0,11.76,10.24,17.52,20.88,17.52,9.92,0,12.56-3.12,20.4-8,.96,0,2.88,3.2,4.96,3.2C150.56-.16,155.68-7.36,155.68-9.92Zm-32.72-6.32c2.72,0,5.44.56,5.44,3.84,0,3.36-2.08,5.04-5.36,5.04-2.72,0-5.52-1.28-5.52-4.4C117.52-14.96,120.08-16.24,122.96-16.24Zm80-39.92c-1.68,0-7.44-.08-7.44-2.48,0-1.52,0-3.92-1.44-4.88-1.28-.88-3.84-.72-5.36-.72-1.36,0-2.8-.08-4.16-.08-6.72,0-3.28,6.64-6.56,8.4a5.464,5.464,0,0,1-2.56.56c-1.68.08-3.52,0-5.2.24-3.68.64-4,5.44-4,8.4,0,2.56.64,4.08,3.44,4.08.72,0,1.44-.08,2.16-.08,1.84,0,2.56.64,2.56,2.48,0,12.16-7.44,22.96-7.44,35.12,0,4.8,5.44,7.52,9.68,7.52a4.093,4.093,0,0,0,3.44-1.2c9.04-12,6.96-37.12,12.48-43.28,1.52-1.68,9.12-.96,11.36-.96,2.64,0,5.2.24,7.84.24,3.36,0,10-.32,10-5.04,0-8.96-5.28-8.48-12.4-8.48C207.2-56.32,205.12-56.16,202.96-56.16Zm30.32,22.72c0-5.44-3.68-6.32-8.32-6.32-1.76,0-3.44-.08-5.12-.08-4.08,0-22.24-.16-22.24,5.68,0,6.16,1.52,8.56,7.76,7.84,12.88-1.44,19.84,1.76,25.36.8C233.12-26.48,233.28-30.96,233.28-33.44Zm-42.8,21.28a10.812,10.812,0,0,0,2.4,7.12c3.2,3.84,8.72,6.32,13.6,7.28a47.728,47.728,0,0,0,9.52.72c4.96,0,17.12-.56,17.12-7.6,0-3.04,0-7.76-4.08-7.76-4.8,0-9.12,2.24-13.92,2.24-2.08,0-8.56-.64-8.56-3.52,0-2.48,3.36-3.84,3.2-5.28-.4-3.36-6.72-5.2-10.64-4.32C194.56-22.24,190.48-16.32,190.48-12.16ZM265.6-47.2c.56-2.96,1.36-5.68,1.44-8.72.08-4.32-4.56-4.48-7.76-4.48a7.335,7.335,0,0,0-4.88,1.2c-5.2,3.6-7.76,23.12-7.92,29.36-.08,6.88,1.12,23.76,4.8,29.44C252.8,2,255.12,2.96,258,2.96l2.4.08c2.32,0,5.52-.72,5.6-3.6.08-4.16-.96-8.16-1.52-12.24a103.546,103.546,0,0,1-.88-15.76,104.7,104.7,0,0,1,2-18.72Zm9.6-2.08c0,2.08.56,6.24,2.4,7.28,3.6,2,9.2-.16,15.12.88,5.44-.08,8.88,1.28,12.16,2.08,3.68,0,6.72-2.4,6.72-8.56,0-2.48-.48-4.8-2.4-6.48-2.32-2-13.84-2.08-17.2-2.24-2-.08-4-.16-5.92-.16-4.08,0-10.88-.24-10.88,5.52Zm9.92,32.4c0-2.64,4.08-6.4,4.08-8.08,0-2.8-6.72-6.88-9.28-6.88-5.28,0-10.8,8-11.04,15.92-.32,11.84,12.88,17.28,22.96,17.28,4.24,0,20.56-1.04,21.6-6.16a11.041,11.041,0,0,0,.24-1.6c0-3.52.4-8.88-4.32-8.88a50.052,50.052,0,0,0-8.4.96,57.969,57.969,0,0,1-9.04,1.04C289.04-13.28,285.12-12.96,285.12-16.88Zm85.84,3.36c0-2.24-.16-5.68-1.68-7.52-2.08-2.4-9.2-2.16-12.16-2.16h-9.6c-3.52,0-12.8.16-15.68,1.76-2.16,1.2-2.56,4-2.56,6.24a72.115,72.115,0,0,0,1.2,13.12,6.009,6.009,0,0,0,1.6,3.36c2.08,1.84,7.04,1.6,9.68,1.6,2.88,0,2.24-.64,2.64-2.96.24-1.36,4.24-1.36,5.28-1.36,2.64,0,8.4-.08,10.72,1.2,1.92,1.12,1.28,2.32,1.68,4.16.56,2.4,7.6,2.4,9.52,2.4,4.32,0,12.96-.08,16.16-3.2a10.487,10.487,0,0,0,2.48-4.64A60.373,60.373,0,0,0,392-15.12c.08-2.24-.16-6.72.32-8.56.8-2.88,4.24-.56,5.12-2.88a13.83,13.83,0,0,0,.48-4.8c0-.88,0-4.08-.72-4.56s-2.88-.32-2.88-1.28c0-1.76,1.6-1.52,1.6-3.36,0-2.4-12.48-6.24-14.8-7.04a9.978,9.978,0,0,1-2.16-.8,4.53,4.53,0,0,1,1.44-.24c2.48,0,4.96.48,7.44.48s6.56-.24,6.56-3.52a10.167,10.167,0,0,0-1.04-5.12c-2.56-4.16-19.52-2.56-24.48-3.6-.8-.16-1.76-.72-1.76-1.6,0-3.2-2.08-4.24-5.04-4.24-2,0-7.28-.16-8.72,1.28-1.6,1.68.4,3.6-3.04,4.64-4.56,1.44-20.48-.08-22.88,2.48-1.36,1.44-1.68,4.08-1.68,6,0,2.72,2,3.44,4.4,3.44,1.76,0,3.52-.16,5.28-.16.72,0,4.32,0,4.32,1.04,0,.4-.88.64-1.12.72-.96.32-1.92.56-2.88.8-2.08.48-11.44,2.08-11.44,4.64,0,1.6,1.6,2,1.6,3.92,0,.96-2.24.96-2.88,1.68-.88.96-.8,3.12-.8,4.32a7.7,7.7,0,0,0,.32,2.72c1.2,3.28,13.28,3.44,16.32,3.44,2,0,3.92-.08,5.92-.08,3.84,0,7.68-.16,11.6-.16,1.2,0,2.48.08,3.68.08,3.6.08,14.24-.08,16.08,3.76.88,1.84.88,6.64.88,8.8,0,2.24-.24,7.92-3.36,7.92-1.12,0-2.72-.08-2.72-1.6ZM351.28-36.48c-.64,0-1.68-.16-1.68-.96,0-1.6,6.64-4.08,8.08-4.08,1.84,0,13.12,2.56,13.12,4.4-.4.4-3.36.64-4,.64Zm5.6,24.64a1.476,1.476,0,0,1-.4.96c-.88.8-5.12.64-6.4.64s-6.24-.08-6.24-1.92c0-2.08,4.48-2.16,5.92-2.16.56,0,1.12.08,1.68.08C353.44-14.08,356.88-14.72,356.88-11.84ZM468.32-21.6c1.12,2.4,1.52,12.32,2.96,13.36l1.04.32a6.96,6.96,0,0,0,7.28-7.04c0-4.24-2.4-26.32-7.84-26.32-.88,0-1.68.32-2.48.32-1.36,0-1.6-.8-1.6-2,0-1.36,1.6-1.68,2.64-1.68,1.2,0,2.32.16,3.52.16,1.76,0,4.4-.16,4.4-2.56,0-4.4-.8-9.52-6.32-9.52-1.68,0-3.28.24-4.88.24-1.92,0-3.44-.24-4.16-2.24-.56-1.44-.8-4.64-1.52-5.52-1.12-1.52-5.2-1.36-6.88-1.36-.72,0-1.44-.08-2.16-.08-7.2,0-3.2,5.28-5.36,7.68-.88.96-3.44.88-4.64.88-6.56,0-9.52-.64-9.52,7.28,0,2.24.56,4.72,3.28,4.72,1.52,0,3.12-.08,4.64-.08,2.48,0,2.24,2,2.24,3.92,0,8.96,0,20.8-4.64,28.72a20.821,20.821,0,0,1-2.16,3.04c-.4.56-1.84,2.32-2.56,2.32-1.68,0,.24-4.08-2.72-4.08-1.52,0-2.88.72-4.4.72-1.68,0-1.92-2.24-1.92-3.52,0-1.84-.24-3.6,2.24-3.6a4.053,4.053,0,0,1,1.04.16.77.77,0,0,1,.56.8c0,2.64,4.16,5.04,6.48,5.04,4.08,0,6.8-19.76,6.8-23.12,0-4.56-1.44-6-6-6-3.92,0-2.88,8.72-4.48,10.88-.88,1.2-2.56,1.04-3.84,1.04-1.36,0-2.88-.16-2.88-1.84s.64-2.56,2.4-2.56c.64,0,1.28.16,1.92.16,2.8,0,2.88-6.72,2.88-8.56,0-1.44-.08-2.96-.08-4.4,0-1.68.08-3.36.08-4.96,0-2.96-.32-6.56-1.68-9.2a4.562,4.562,0,0,0-3.2-2.48,9.938,9.938,0,0,0-2.64-.32c-10.88,0-20.8.48-21.2,13.76-.08,3.52-.16,7.12-.16,10.64,0,9.2,7.84,3.2,9.84,7.28.96,1.92,1.2,14.72,1.2,17.6,0,.16.32,4.8-.64,4.8-1.12,0-1.12-3.84-1.12-4.64,0-2.48.24-4.96.24-7.52,0-2.96-.16-9.36-4.32-9.36-3.12,0-4.64.88-4.64,4.16,0,6.16.64,12.16.64,18.32,0,1.92-1.68,1.44-1.68,2.64,0,3.68,2,9.92,6.48,9.92,5.36,0,12.24-1.76,17.52-2.96a24.653,24.653,0,0,1,4.88-.56c5.28,0,3.84,4.72,7.12,4.72,2.64,0,7.6-7.28,8.8-7.36.56.32.56,3.76.56,4.48a4.258,4.258,0,0,0,.96,2.32c1.52,1.6,4.16,1.28,6.16,1.28,2.48,0,5.28,0,7.6-1.04,6.16-2.8,5.36-20.56,5.36-25.92Zm-48-25.28c0,2.4-.88,3.28-3.28,3.28a1.747,1.747,0,0,1-2-2v-2.64c0-2.48.96-3.36,3.44-3.36,1.52,0,1.84.88,1.84,2.24ZM456.16-17.2c0,1.52-.24,11.44-1.36,11.76a6.217,6.217,0,0,1-1.28.16c-.96,0-3.28-.16-3.28-1.52,0-4.64,2-8.96,2.8-13.52a112.888,112.888,0,0,0,1.28-19.44c0-.96-.08-1.92-.08-2.88a4.752,4.752,0,0,1,.56-2.08c1.36.24,1.36,8.48,1.36,9.84Zm80.32-16.24a38.1,38.1,0,0,0-.88-9.04,17.454,17.454,0,0,0-1.76-4.4c-2.32-4.16-9.6-4-13.68-4-2.08,0-4.16.08-6.24.08-1.76,0-1.92-.56-1.92-2.16,0-2.8,1.36-5.28,1.36-8.16,0-2.72-1.36-3.92-4.08-3.92-2.16,0-5.52-.16-7.52.96-4.96,2.8-3.2,11.6-7.12,13.2-1.76.72-3.76.56-5.6.64-4.56.24-5.52,4-5.52,7.84,0,2.4.64,4.96,3.6,4.96,2.24,0,4.56-.56,4.56,2.4,0,10.32-9.44,19.6-9.44,30,0,4.8,7.12,7.52,11.36,7.52a3.59,3.59,0,0,0,3.04-1.04c3.84-3.52,10.64-36.56,13.12-38.48a4.231,4.231,0,0,1,2.96-.72c5.2,0,6.56,0,6.56,5.68v10.4c0,2.48-.16,11.68-3.76,11.68-2.56,0-4.8-1.2-7.36-1.2-4.64,0-5.28,5.76-5.28,9.28,0,5.2,13.52,6,17.2,6,14.08,0,16.4-18.16,16.4-28.88Zm15.92-13.6c1.84.24,6.56-.72,6.8-3.12.24-2.24-5.2-12-7.44-12.24-1.76-.16-6.48,1.12-6.72,3.28C544.8-56.48,549.6-47.36,552.4-47.04Zm-13.76,2.88c1.92,0,6.72-2,6.72-4.24,0-2.08-5.44-10-7.28-10.88a5.084,5.084,0,0,0-7.2,4.16C530.88-53.12,536.56-44.16,538.64-44.16Zm5.12,27.44c.48,2.72,2.08,4.48,4.96,4.48,4.08,0,10.8-1.6,10.8-6.72,0-4.32-4.48-18.4-7.2-21.6a4.752,4.752,0,0,0-3.68-1.28c-2.8,0-9.92,1.68-9.92,5.36,0,3.92,3.76,15.44,5.04,19.84Zm32.72-15.52c-6.16,3.6-12.56,7.92-12.56,15.84,0,11.68,12.88,19.2,23.44,19.2,7.76,0,13.92-2.72,14.24-11.36,0-.72.08-1.44.08-2.16,0-3.28-.24-6.56-.48-9.84-.24-3.6,2.48-3.44,3.2-3.44,4.4,0,10.24,1.84,10.24,7.12,0,7.36-10.88,5.68-10.88,11.36,0,4.24,2.56,9.52,7.44,9.52,5.92,0,15.68-9.28,17.92-14.48a19.446,19.446,0,0,0,1.76-8.48c0-13.44-16.4-18.56-27.44-18.56-1.52,0-2.08-.4-2.08-2,0-2.96.96-3.92,3.92-3.92,1.44,0,2.96.16,4.4.16,2.48,0,7.12-.16,7.12-3.52,0-2.08.16-4.88-1.12-6.64a4,4,0,0,0-2.16-1.44c-2.72-.8-12.4.64-12.4-3.52,0-.8.4-1.52.4-2.32,0-3.28-6.08-3.12-8.32-3.12-1.68,0-5.52-.16-6.32,1.68a5.536,5.536,0,0,0-.4,2.24,7.92,7.92,0,0,1-.8,3.28,2.17,2.17,0,0,1-1.52,1.12,12.113,12.113,0,0,1-2.96.56c-3.12.24-10.88-.32-12.4,2.88-.8,1.6-.72,3.52-.72,5.28,0,3.12,2.72,3.76,5.28,3.76,2,0,3.92-.16,5.92-.16,1.44,0,4.96,0,6,1.04a5.447,5.447,0,0,1,.32,2.24C585.6-34.48,580.24-34.4,576.48-32.24Zm54.56-2.8c2,0,8.08-2.56,8.08-4.96,0-3.04-10.32-16.4-13.36-16.4-2.4,0-7.04,2.48-7.04,5.2C618.72-48.24,628-35.04,631.04-35.04Zm-45.2,22.16c0,1.52-.08,2.64-1.84,2.64-2.48,0-4.4-3.12-4.4-5.36,0-2.4,2.56-5.52,5.04-5.52,1.04,0,1.2,2.88,1.2,3.68Zm103.92-.72c4.08,0,13.2-2.72,15.28-7.52,0-2.88-3.84-6.72-3.84-8.08,0-3.04,12.8-.8,12.8-4.48,0-4.56.48-8.96-5.52-8.96-2.24,0-4.48.32-6.8.32-1.76,0-6.64,0-7.04-2.24.88-2.56,5.76-1.12,8.72-1.12,1.44,0,2.96.24,4.4.24.72,0,2.96.56,3.84-2.16,1.6-5.04-.48-9.6-7.28-9.6-2,0-4,.16-6,.16-1.76,0-5.36-.08-6.32-1.76-1.2-2.08-.56-5.04-3.36-5.04-1.36,0-2.64-.08-4-.08-1.84,0-7.76-.08-7.76,2.72,0,1.28.24,1.92-.32,3.12-1.52,3.28-22.4-.4-25.12,5.12a9.749,9.749,0,0,0-.64,4.56c0,3.36,3.04,4.16,5.84,4.16,6.4,0,12.72-.48,19.12-.48,1.04,0,4-.08,4,1.44,0,2-10.48,1.84-11.84,1.84-2.16,0-4.4-.16-6.56-.16-4,0-15.12,0-15.12,5.52,0,4.24,1.92,6.24,6.16,6.24,1.6,0,3.2-.08,4.8-.08,7.44,0,14.88-.24,22.32-.24,1.12,0,7.2-1.76,6,3.04-.64.16-.64.88-2.56.88-2.16,0-4.4-.08-6.56-.08-8.88,0-25.68-.8-25.68,11.44,0,15.04,20.88,18.72,32.4,18.72,3.52,0,18.72-.32,19.84-4.4a10.143,10.143,0,0,0,.24-2.72c0-2.96-.16-6.32-3.92-6.32-5.92,0-11.68,1.04-17.6,1.04-3.28,0-15.12-.08-15.12-3.76,0-3.36,6.24-2.88,8.64-2.96C680.32-15.52,687.2-13.6,689.76-13.6Zm68.56-12.72a1.218,1.218,0,0,1-1.36,1.44,97.348,97.348,0,0,0-10.8.24c-7.92.88-14.48,3.76-14.48,11.84,0,11.6,10.48,17.36,20.96,17.36,5.76,0,12.32-.96,16.24-5.52h-.08c1.2-1.2,2.24-2.88,4.16-2.88,2.56,0,6,5.44,9.44,5.04,4.4-.48,10.32-9.84,8.64-11.68-7.12-8.08-17.76-5.76-17.76-12.56,0-4.16,2.4-5.2,6.16-5.2,1.44,0,2.8.16,4.16.16,3.76,0,6.16-.72,6.16-4.32,0-8.48-3.52-8.16-9.76-8.16-1.04,0-2,.16-3.04.16-.96,0-3.76-.08-3.76-1.44,0-1.84,2.48-2,3.28-2,3.12,0,6.16.4,9.28.4,2.24,0,6.56-.48,6.56-3.44a12.935,12.935,0,0,0-1.04-5.76c-4.08-7.44-18.8-.64-18.8-6.4,0-.96.32-1.44-.4-2.32-1.36-1.68-6.56-1.68-8.56-1.68-1.84,0-5.2.16-5.2,2.64,0,.48.08.96.08,1.44a1.975,1.975,0,0,1-.64,1.28c-1.6,1.6-5.52,1.52-7.68,1.52-3.44,0-6.88-.24-10.24-.24-5.2,0-11.92,1.12-11.92,7.6,0,3.6,1.76,5.12,5.28,5.12,5.28,0,10.56-.24,15.92-.24,1.68,0,6.56-.16,8,.32l.64,1.6c0,1.36-1.44,1.44-2.48,1.44-2.64,0-5.2-.16-7.84-.16-3.2,0-15.44-.16-16.64,3.28a13.612,13.612,0,0,0-.48,4.24v.96c.08,3.68,4.88,4.32,8.24,4.32,3.04,0,6.16-.16,9.28-.16,1.84,0,9.04-.24,10.16.88h-.08ZM752.96-14c1.12,0,5.2.4,5.2,1.92v.8c0,2.96-4.16,3.2-6.32,3.2-2.08,0-5.28-.32-5.28-3.04,0-2.16,2.64-2.88,4.4-2.88Zm81.68-29.28c-9.76,0-20,4.08-20,15.2,0,10.48,9.76,15.36,19.12,15.36,2.24,0,4.72-.48,7.04-.48.96.88.24,2-2.08,2-5.68.64-17.04-1.04-18.24,4.8-1.12,5.84,2.4,10.8,8.48,10.8a63.888,63.888,0,0,0,13.52-1.76C854.48-.96,858.4-9.04,858.4-22c0-5.44-2.8-10.4-2.8-15.76,0-5.84.16-7.44,6.48-7.44,2.16,0,4.32.4,6.48.4,2.72,0,7.6-.16,7.6-3.84,0-5.68-2.64-8.64-8.48-8.64-2,0-4,.08-5.92.08-10.8,0-4.64-3.76-8.88-6.96-1.28-.96-6-.96-7.76-.96-2,0-5.92.4-5.92,3.12,0,3.52-2.16,4.4-5.36,4.4-3.92,0-7.84-.16-11.76-.16-12.4,0-18,.16-18,6.48,0,5.2,1.44,6.16,6.48,6.16,6,0,12-.24,18-.24,2.24,0,9.84-1.44,10.48.56C838.64-43.04,835.92-43.28,834.64-43.28Zm-4,15.2c0-2.88,2.32-4.24,4.96-4.24s4.96,1.36,4.96,4.24c0,2.8-2.4,4.16-4.96,4.16C833.2-23.92,830.64-25.52,830.64-28.08ZM931.2-26a14.3,14.3,0,0,1-1.2-5.76c0-5.68.4-7.2,6.48-7.2,2.32,0,4.64.16,7.04.16,1.92,0,7.76-.08,8.64-2.16a4.672,4.672,0,0,0,.32-1.44c0-2.24.08-4.8-1.52-6.64-2.08-2.4-5.04-3.04-8.08-3.04-2.4,0-4.8.08-7.12.08-1.92,0-4.96.08-5.84-2a10.5,10.5,0,0,1-.96-4.08,8.386,8.386,0,0,0-.4-3.12c-.8-2.24-6.4-2-8.24-2a9.833,9.833,0,0,0-4.8.8c-3.12,1.68-2.8,18.24-2.8,21.92,0,1.44.32,9.6-.48,10.16a4.21,4.21,0,0,1-1.44.32,9.681,9.681,0,0,1-1.52.08,63.426,63.426,0,0,0-7.76.64c-4.96.72-10,2.72-13.12,6.8a12.155,12.155,0,0,0-2.24,7.6c0,13.2,12.64,20.48,24.32,19.6,19.76-1.52,18.4-11.28,21.76-11.84,3.44,1.04,7.52,6.08,10.4,6.08,2.64,0,9.04-9.6,8.88-12.24-.48-9.76-17.2-8.72-20.4-12.8ZM910-16.96c.96,0,2.4.08,2.88,1.12,0,.8.08,1.6.08,2.4,0,3.12-.72,5.04-4.16,5.04-3.12,0-6.48-1.12-6.48-4.8,0-2.8,3.12-3.76,5.44-3.76Zm110.72-34.16c0-2.72-.48-5.52-2.88-7.12-3.28-2.24-22.32-2.8-27.04-2.8-6.56,0-11.44.08-11.44,8.16a4.035,4.035,0,0,0,1.84,3.36c4.32,2.56,26.56,3.28,32.48,3.28C1017.44-46.24,1020.72-46.56,1020.72-51.12Zm12.24,26.16c0-13.68-16.4-17.28-27.2-17.28-5.28,0-38.16,2.32-38.16,8.56,0,3.92,1.52,8.72,6.24,8.72,10.64,0,20.96-3.36,31.6-3.36,3.52,0,10.32-.08,10.32,4.88,0,8.24-14.96,10.96-21.12,12.24-2.24.48-8.56,1.52-10.16,2.64a4.7,4.7,0,0,0-1.6,2.32c0,7.6,4.16,12.08,11.84,12.08,5.76,0,20.88-8.08,22.64-9.04C1026.08-8.08,1032.96-14.16,1032.96-24.96ZM1065.6-47.2c.56-2.96,1.36-5.68,1.44-8.72.08-4.32-4.56-4.48-7.76-4.48a7.335,7.335,0,0,0-4.88,1.2c-5.2,3.6-7.76,23.12-7.92,29.36-.08,6.88,1.12,23.76,4.8,29.44,1.52,2.4,3.84,3.36,6.72,3.36l2.4.08c2.32,0,5.52-.72,5.6-3.6.08-4.16-.96-8.16-1.52-12.24a103.557,103.557,0,0,1-.88-15.76,104.717,104.717,0,0,1,2-18.72Zm9.6-2.08c0,2.08.56,6.24,2.4,7.28,3.6,2,9.2-.16,15.12.88,5.44-.08,8.88,1.28,12.16,2.08,3.68,0,6.72-2.4,6.72-8.56,0-2.48-.48-4.8-2.4-6.48-2.32-2-13.84-2.08-17.2-2.24-2-.08-4-.16-5.92-.16-4.08,0-10.88-.24-10.88,5.52Zm9.92,32.4c0-2.64,4.08-6.4,4.08-8.08,0-2.8-6.72-6.88-9.28-6.88-5.28,0-10.8,8-11.04,15.92-.32,11.84,12.88,17.28,22.96,17.28,4.24,0,20.56-1.04,21.6-6.16a11.033,11.033,0,0,0,.24-1.6c0-3.52.4-8.88-4.32-8.88a50.052,50.052,0,0,0-8.4.96,57.969,57.969,0,0,1-9.04,1.04C1089.04-13.28,1085.12-12.96,1085.12-16.88Zm65.92-5.52c0,7.2,3.84,7.12,9.68,7.12,6.16,0,8.4-1.44,8.4-7.92,0-7.6-2.96-7.92-9.68-7.92-5.12,0-8.4,1.04-8.4,6.88Zm-14.08,6.88c1.68,0,4.96-.4,4.96-2.64,0-1.92-.24-3.84-.24-5.76,0-5.44.88-7.04-5.52-7.04-5.44,0-12.32,0-12.32,7.28,0,7.36,4.56,8.16,10.72,8.16Zm59.44-8c0-7.12-6.08-7.44-11.6-7.44-4.16,0-6.8.16-6.8,5.04,0,2.16.16,4.24.16,6.4,0,3.44,2.24,4.08,5.2,4.08C1189.76-15.44,1196.4-15.12,1196.4-23.52Z" transform="translate(-5.12 66.245)" fill="#fafafa"/>
</svg>
