<svg xmlns="http://www.w3.org/2000/svg" width="796.72" height="71.12" viewBox="0 0 796.72 71.12">
  <path id="パス_3" data-name="パス 3" d="M20.56-7.12c0-4.4-.24-8.8-.24-13.12,0-1.2-.08-7.12.8-7.68,2.96,0,2.4,15.44,13.2,15.44,12.16,0,10-15.52,13.92-15.52a21.589,21.589,0,0,1,.56,3.28c0,5.92-.32,11.84-.32,17.76,0,3.6.88,5.36,4.72,5.36,2.64,0,4.72.32,6.56-1.76C64-8.16,64.32-19.6,64.32-25.84c0-1.76-.08-3.44-.08-5.2,0-6.8-.16-16.24-3.28-22.32-1.28-2.56-3.44-3.52-6.24-3.52-2.72,0-6-.24-8,2C43.28-50.88,39.28-30,34-30c-4.32,0-8.24-23.84-13.36-26.16a8.4,8.4,0,0,0-3.68-.72,16.839,16.839,0,0,0-5.28.72,6.457,6.457,0,0,0-3.84,3.68C5.6-47.76,5.2-35.36,5.2-29.92c0,5.52,0,24.56,5.12,27.52,1.68.96,3.52.88,5.36.88C19.68-1.52,20.56-3.36,20.56-7.12ZM76.08-52.4c0,1.52.08,4.48,2.16,4.48,3.04,0,6.16.08,9.2.08,1.92,0,4.4-.4,4.4-2.8,0-5.84-1.04-8.32-7.36-8.32C79.44-58.96,76.08-58.32,76.08-52.4ZM85.2-41.2c-10.32,0-9.68,6.08-9.68,14.24,0,2.32-.16,4.56-.16,6.88,0,5.52,0,19.12,8,19.12,9.92,0,8.8-11.04,8.8-17.92,0-4.16.08-8.4.08-12.56C92.24-36.24,90.88-41.2,85.2-41.2Zm34.08,28.64c0-1.44-.08-2.88-.08-4.32,0-7.76,7.44-12.96,14.72-12.96.72,0,1.36.16,2.08.16s1.36-.32,1.36-1.12c0-3.12.56-9.44-4.08-9.44-5.6,0-8.8,2.64-13.6,4.88l-.56-.48a8.815,8.815,0,0,0,.16-1.44c0-2.48-2.32-3.44-4.48-3.44a27.626,27.626,0,0,0-6.8.64c-4.8,1.2-4.8,12.88-4.8,16.8,0,4.08,0,15.92,1.84,19.12,1.68,2.88,5.6,3.28,8.64,3.28,3.12,0,5.6-1.36,5.6-4.72Zm49.36-14.72c0,.4-.08.8-.48.96-.8.24-7.04.32-8.48.48-5.04.48-10.08,1.76-13.76,5.44a9.584,9.584,0,0,0-2.48,6.96C143.44-5.92,150.4,0,157.68,0c4.56,0,9.2-3.92,11.2-3.92.56,0,.56,1.76.88,2.24.48.72,1.52.72,2.32.72h2.56c7.44,0,9.68-4.72,9.68-11.44,0-4.48-.08-8.88-.08-13.36,0-11.6-10.48-15.92-20.56-15.92-3.36,0-15.76.88-17.04,4.56a13.379,13.379,0,0,0-.48,4c0,1.44-.32,3.2,1.68,3.2,5.36,0,10.4-1.6,15.76-1.6C166.16-31.52,168.64-30.08,168.64-27.28ZM157.12-13.04c0-4.24,4.4-5.04,7.84-5.04a15.279,15.279,0,0,1,3.36.16c.4.16.48.88.48,1.28,0,4.08-4.08,6.8-7.84,6.8C159.2-9.84,157.12-11.12,157.12-13.04Zm33.04-8.32c0,12,8.48,21.52,20.72,21.52,3.04,0,12.32-.8,14.32-3.04,1.44-1.6,1.36-4.16,1.36-6.16a3.121,3.121,0,0,0-1.36-2.8c-3.36,0-6.48,1.04-9.76,1.04-6.56,0-8.88-3.76-8.88-9.92,0-5.04,1.6-10,7.52-10,3.12,0,6.08.88,9.12.88,2.64,0,2.64-.88,2.64-3.28,0-8.64-8.64-8.56-15.12-8.56A20.5,20.5,0,0,0,190.16-21.36ZM246.8-59.04a8.913,8.913,0,0,0-4.56.8A5.235,5.235,0,0,0,240-55.92c-2.08,4.24-2.48,11.84-2.48,16.56,0,2.88.08,5.84.08,8.72,0,5.6-.32,22.64,2.32,26.96,1.52,2.48,4.24,2.8,6.88,2.8,7.52,0,7.52-17.04,7.52-22.08,0-3.92-.24-7.76-.24-11.68,0-1.68.08-3.36.08-5.04C254.16-44.64,254.16-59.04,246.8-59.04Zm58.16,39.36a24.871,24.871,0,0,0-1.36-8.72c-2.8-7.84-9.44-13.36-17.92-13.36-12.48,0-23.44,6.96-23.44,20.4,0,13.2,10.48,21.52,23.2,21.52,2.88,0,11.92-.8,14-2.64,1.6-1.44,1.68-4.24,1.68-6.24,0-1.52-.72-2.56-2.32-2.56-3.76,0-7.2,1.36-10.96,1.36-3.04,0-9.44-.96-9.44-4.96,0-2,9.12-1.92,10.64-1.92,3.04,0,6.16.24,9.2.24C300.4-16.56,304.96-16.64,304.96-19.68Zm-23.12-4.96c-.88,0-4.08-.16-4.08-1.52,0-3.76,3.04-5.76,6.56-5.76,3.12,0,6,1.68,6,5.12,0,1.92-1.92,2.16-3.44,2.16Zm73.68,11.68h3.68c8.24,0,3.28-6.48,7.12-9.2,1.2-.88,3.92-.24,5.36-.48,3.6,0,6.24-.08,6.24-2.56v-3.44c.08-2.72-.32-7.36-4-7.36-2.8,0-5.44.8-8.24.8-2.88,0-6.24-2.56-8.64-4a37.881,37.881,0,0,0-5.76-2.72,20.9,20.9,0,0,0-7.36-1.2c-1.52,0-3.12.24-4.64.24,1.12-1.76,6.72-1.76,30.96-1.52,2.72,0,6.96-.16,6.96-3.84,0-2.64-.08-4.88-2.4-6.56-4.64-3.28-26.4-.64-28.64-3.68a11.476,11.476,0,0,0,.56-2.24c0-3.28-9.68-3.44-11.92-3.44-5.68,0-3.04,7.28-8.72,7.76a12.387,12.387,0,0,1-1.76.08c-1.92,0-3.76-.24-5.68-.24-5.2,0-6.48,3.92-6.48,8.32,0,2.88,1.12,4.16,4,4.16.56,0,5.76-.48,5.76.88,0,3.2-11.36,10.24-10.08,15.92.72,3.12,6.96,8,9.28,8,3.2,0,6.08-3.92,8-6.16a19.41,19.41,0,0,1,6.48-5.2,13.293,13.293,0,0,1,5.6-.88c.64,0,2.24.16,2.48.8L338-27.36h.08c-6,3.52-13.12,7.36-13.12,15.36,0,14.64,17.6,15.92,28.48,15.92,4.64,0,19.28,1.52,21.2-3.44.48-1.2.48-4.4.48-5.6,0-3.44.32-6.88-3.84-6.88-7.12,0-13.68,3.12-20.8,3.12-2.4,0-9.44-.24-9.44-3.76,0-1.76,5.2-4.8,6.8-4.8C347.28-12.56,352.32-12.96,355.52-12.96ZM413.36,6.4c1.04,0,2.56,0,2.56-1.36a2.977,2.977,0,0,1,.16-1.44c1.12-1.84,15.2-1.52,17.92-1.52,5.76,0,27.36.8,30.4-3.76.96-1.36.88-2.72.88-4.32,0-3.52-4.32-4.08-7.04-4.08-5.12,0-10.24.08-15.36.32-1.84.08-3.76.16-5.6.16-4.8,0-15.68.08-19.44-3.2-2.48-2.16-2.88-6.32-2.88-9.44,0-2.4-.08-4.8-.08-7.2,0-2.16,0-10.56,3.12-10.56,1.2,0,2.64.16,3.36,1.28,2.24,3.44-.96,17.2,3.44,21.04a6.842,6.842,0,0,0,3.44,1.6c3.68.8,10.32.56,14.24.56,2.56,0,5.04-.08,7.6-.16,8-.32,9.76-4.8,9.76-12.08,0-2-.24-3.92-.24-5.92,0-8.72,5.84-4.8,8.56-6.48,1.04-.64.96-2.72.96-3.76,0-10.56-4.8-5.36-8.72-8-4.72-3.2,2.64-11.2-11.44-11.2-2.8,0-4.8.16-4.8,3.52,0,1.12.24,2.16.24,3.28,0,1.6-.16,4.56-2.32,4.56-3.68,0-6.16-.96-6.16-5.12,0-3.92.32-6.56-4.64-6.56-4.48,0-8.96-.88-8.96,5.12,0,2.8.56,6.56-3.36,6.56-2.24,0-3.28-.48-3.28-2.88,0-1.44.24-2.88.24-4.32,0-4.32-2.56-4.24-6.08-4.24-2.08,0-4.8.24-6.64,1.44a3.187,3.187,0,0,0-1.52,2c-.64,2.24-.48,4.64-1.28,6.88-.16.4-.4,1.12-.88,1.28-5.28,1.92-8.08-.96-8.08,7.12,0,1.28-.24,3.6.96,4.48,2,1.44,7.52-1.2,7.52,5.92,0,3.52-.08,7.04-.08,10.64,0,5.04,0,27.92,5.76,29.36a16.427,16.427,0,0,0,3.92.48Zm31.6-36.88c0,3.68-1.04,4.08-4.56,4.08-3.6,0-4.16-2.48-4.16-5.52,0-1.2-.08-2.4-.08-3.6,0-2.88,1.2-4.4,4.16-4.4,3.76,0,4.64.88,4.64,4.64ZM511.6-63.52c-3.76,0-7.6,0-11.36.08-6.88.16-14.8.64-18.08,7.76-2.48,5.28-2.56,13.6-2.56,19.36,0,2.32-.08,8.48,2.72,9.28,1.04.32,3.92,0,4.64.56-.4,1.2-12.72,3.04-12.72,6.8,0,2.96,3.6,8.72,6.88,8.72,3.36,0,6.16-2.96,9.52-2.96a1.012,1.012,0,0,1,1.12,1.12c0,5.84-13.52,5.2-13.52,9.2,0,2.8,5.6,9.28,8.48,9.28,2.72,0,5.28-1.2,7.68-2.32C504.24-1.36,506.48-8,506.48-18.4v-.4c-1.04-.32-4.16-.24-4.72-1.04,2.8-2.16,8.08-7.04,11.68-7.04,2.4,0,11.36,5.36,12.08,7.68-1.44,0-2.56-.4-3.68.72-1.2,1.2-1.36,11.28-1.36,13.36,0,2.16,0,4.4.08,6.56.16,3.44,1.52,4.88,4.96,4.88,4.16,0,9.68-.48,9.92-5.84V-1.36c0-2.08-.56-11.6,2.8-11.6,2.88,0,5.28,2.08,8.16,2.08,3.36,0,5.92-6,5.92-8.88,0-3.68-9.52-5.52-12.24-6.32,1.28-1.92,7.28,1.44,7.28-6.8a125.862,125.862,0,0,0-.56-13.44c-.96-8.8-3.04-14.64-12.48-16.4a76.712,76.712,0,0,0-13.52-.8ZM503.36-52.8c1.28,0,2.96.64,2.96,2.16,0,1.84-2.88,2-4.24,2-.8,0-1.6-.08-2.4-.08-.64,0-1.2.08-1.84.08-1.2,0-2.8-.16-2.8-1.68,0-2.24,3.44-2.48,5.12-2.48Zm21.36,4.24c-1.44,0-4.16-.24-4.16-2.24,0-2.4,3.68-1.76,5.28-1.92.48,0,.88-.08,1.36-.08,1.84,0,4.64.24,4.64,2.72,0,1.36-2.48,1.52-3.44,1.52Zm7.52,10.64c0,1.76-4.88,1.52-6.16,1.6h-.72c-1.76,0-4.64-.08-4.64-2.4,0-1.92,4.88-1.76,6.32-1.76C528.88-40.48,532.24-40.48,532.24-37.92Zm-26,0a1.14,1.14,0,0,1-.48.96c-1.04.72-5.52.64-6.64.64-1.44,0-4.48-.16-4.48-2.16s5.12-1.84,6.32-1.84c.56,0,1.12-.08,1.68-.08C504.48-40.4,506.24-40.08,506.24-37.92Zm75.92-9.28c.56-2.96,1.36-5.68,1.44-8.72.08-4.32-4.56-4.48-7.76-4.48a7.335,7.335,0,0,0-4.88,1.2c-5.2,3.6-7.76,23.12-7.92,29.36-.08,6.88,1.12,23.76,4.8,29.44,1.52,2.4,3.84,3.36,6.72,3.36l2.4.08c2.32,0,5.52-.72,5.6-3.6.08-4.16-.96-8.16-1.52-12.24a103.557,103.557,0,0,1-.88-15.76,104.711,104.711,0,0,1,2-18.72Zm9.6-2.08c0,2.08.56,6.24,2.4,7.28,3.6,2,9.2-.16,15.12.88,5.44-.08,8.88,1.28,12.16,2.08,3.68,0,6.72-2.4,6.72-8.56,0-2.48-.48-4.8-2.4-6.48-2.32-2-13.84-2.08-17.2-2.24-2-.08-4-.16-5.92-.16-4.08,0-10.88-.24-10.88,5.52Zm9.92,32.4c0-2.64,4.08-6.4,4.08-8.08,0-2.8-6.72-6.88-9.28-6.88-5.28,0-10.8,8-11.04,15.92C585.12-4.08,598.32,1.36,608.4,1.36c4.24,0,20.56-1.04,21.6-6.16a11.041,11.041,0,0,0,.24-1.6c0-3.52.4-8.88-4.32-8.88a50.051,50.051,0,0,0-8.4.96,57.97,57.97,0,0,1-9.04,1.04C605.6-13.28,601.68-12.96,601.68-16.88Zm56.56,5.44c0,4.8-14.4,4.16-14.4,8,0,3.12,3.68,9.44,7.2,9.44,4.8,0,12.24-2.64,16.08-5.44a14.709,14.709,0,0,0,3.52-3.52c1.92-2.56,3.6-5.28,5.68-7.68a3.54,3.54,0,0,1,2.64-1.44c3.44,0,4.16.8,4.16,4.24,0,2.72-.08,5.52-.08,8.24,0,3.44,1.36,4.96,4.8,5.44a61.264,61.264,0,0,0,8.56.32c10.08,0,17.92.72,19.68-11.6a19.6,19.6,0,0,0,.64-3.12c0-2.24-6.24-2.32-7.76-2.32-1.84,0-4.88-.4-6,1.6-.96,1.76.16,4.64-2.8,4.64a5.813,5.813,0,0,1-2-.32,23.725,23.725,0,0,1-.24-3.36c0-4.24,4.56-4.4,7.68-4.4,1.2,0,2.32.16,3.52.16,3.92,0,7.6-.88,7.6-5.6,0-5.2-1.04-5.68-6.08-5.68-1.76,0-3.44.24-5.12.24-2.08,0-7.12,0-7.12-2.96,0-1.28.16-2.64,1.76-2.64a11.263,11.263,0,0,0,2.32-.08l.64-1.12c1.52,0,5.92,3.92,9.04,3.92,2.72,0,6.08-7.2,6.08-9.6,0-2.56-5.04-2.56-5.04-4.88,0-1.44,2.48-3.76,3.12-5.36a3.042,3.042,0,0,0-1.04-2.64c-1.68-1.76-5.44-4.16-7.92-4.16-3.2,0-3.36,5.12-6,5.12a2.335,2.335,0,0,1-1.68-.88.806.806,0,0,0-.08-.24c0-1.84,4-4.8,4-7.52,0-2.56-6.8-6.32-9.12-6.32-2.08,0-2,3.6-4.4,3.6-.56,0-3.04-3.04-4.16-3.44-2.32-.88-5.76-.96-8.32-.96-2.16,0-4.32.16-6.48.16-4,0-9.12-.08-12.8,1.52-3.52,1.52-1.84,3.92-2.96,6.72-.16.32-.32.72-.72.72-1.04,0-.88-1.2-2.08-1.2-1.36,0-9.28,7.12-9.28,8.32,0,1.52,4.4,4.32,4.4,6,0,2.32-5.68,2.64-5.68,6.48,0,2.64,3.12,8.48,6.16,8.48s5.12-2.96,8.08-3.6c.96.16.8,1.04,1.84,1.04,2.32,0,2.96.16,2.96,2.64,0,2.4-2.72,2.72-4.56,2.72-2,0-4.08-.32-6.16-.32-3.04,0-7.2.16-7.2,4.24,0,3.6.72,7.12,5.04,7.28h1.52c2.96,0,5.52-.32,8.4.72Zm4.48-41.04a6.09,6.09,0,0,1,1.68.24c0,1.6-2.64,3.04-4,3.36-.72-.32-2.56-1.84-2.56-2.48a1.9,1.9,0,0,1,1.84-1.12Zm12.72,12.16c-1.04,0-3.12-.16-3.92-.96,0-2,6.32-7.52,8.32-7.52,2.32,0,8.32,5.36,8.32,7.68,0,.64-3.84.8-4.4.8Zm5.28,11.12c1.44,0,2.48.24,2.48,1.92,0,1.6,0,3.52-2.08,3.52H679.6c-2.24,0-3.44-.16-3.44-2.72,0-1.44.48-2.72,2.16-2.72Zm65.36-17.28c0,.72-.08,1.44-.08,2.16a2.7,2.7,0,0,0,.4,1.36c1.44,2.08,22.64,2.24,25.92,2.24,5.6,0,11.2-.16,16.88-.16,2.96,0,12.72.72,12.72-3.84a4.847,4.847,0,0,0-1.6-4.08c-4.56-4-38.64-2.08-46.88-3.04-2-.24-5.2-.24-5.2-2.96,0-1.6.8-3.04.8-4.64,0-3.84-5.28-3.84-8-3.84a5.457,5.457,0,0,0-4.48,2.08,13.478,13.478,0,0,0-1.68,2.96c-1.6,3.6-2.48,7.92-4.24,11.28-1.92,3.68-6,9.12-7.04,12.88a10.059,10.059,0,0,0-.4,2.64c0,1.68.88,12.8,2.88,12.8,1.28,0,.96-1.44,2.24-1.44.8,0,1.12,3.68,1.12,4.32,0,3.6.32,7.2.4,10.8.16,6.4,1.92,11.28,9.2,11.28,4,0,4.8-3.36,4.8-6.72,0-10.16-.48-20.24-.48-30.4,0-3.92.08-12.48,2.32-15.68Zm50.56-9.76a4.926,4.926,0,0,0-3.36-4.88c-4.56-1.76-28.08-1.76-33.68-1.76-4.16,0-7.28,1.44-7.28,6,0,2.08,2.8,2.8,4.4,3.12a31.9,31.9,0,0,0,6.16.4c9.28,0,18.48.48,27.76.48C793.04-52.88,796.64-53.04,796.64-56.24Zm-46.8,22.16c0,3.44,8,3.92,10.4,3.92,9.68,0,19.28-.08,28.96-.08,3.68,0,8.24.16,8.24-4.72,0-3.92-9.2-4.32-12-4.32-1.6,0-3.2.08-4.8.08H760c-2.56,0-10.16.08-10.16,3.84Zm17.92,5.6c-2.88,0-15.36.08-17.12,1.84a3.02,3.02,0,0,0-.8,2.16c0,4.16,4.48,5.12,7.84,5.12h22c1.84,0,3.68.08,5.44.08a29.068,29.068,0,0,0,10.16-1.6,3.072,3.072,0,0,0,2.24-2.96c0-4.32-6.32-4.64-9.44-4.64-1.76,0-3.52.08-5.28.08s-3.52-.08-5.36-.08ZM759.6,6.96c1.04,0,2.88,0,3.68-.8.4-.4.48-.96,1.04-1.28.72-.48,10.72-.56,12.32-.56.48,0,4.16-.24,4.56.32,1.28,1.76,1.6,1.76,3.76,1.76,9.2,0,10.96-1.12,12.08-10.4a53.4,53.4,0,0,0,.56-6.16c0-6.48-4.88-7.44-10.32-7.44-8.8,0-17.6-.08-26.4-.08-6.4,0-11.6,2-11.6,9.28,0,1.92-.08,3.92-.08,5.84,0,2.72.48,5.92,2.48,7.92,1.76,1.76,4.16,1.2,6.32,1.52A10.722,10.722,0,0,0,759.6,6.96ZM782.64-7.2c0,2.56-3.36,2.8-5.2,2.8s-3.76.24-5.6.24c-1.92,0-8,.08-8-2.72,0-2.16,7.44-2.08,8.96-2.08a73.17,73.17,0,0,1,8.56.4A1.527,1.527,0,0,1,782.64-7.2Z" transform="translate(-5.2 64.16)" fill="#fafafa"/>
</svg>
