<svg xmlns="http://www.w3.org/2000/svg" xmlns:xlink="http://www.w3.org/1999/xlink" width="400" height="400" viewBox="0 0 400 400">
  <defs>
    <radialGradient id="radial-gradient" cx="66.402" cy="269.179" r="247.765" gradientTransform="translate(-183.951 335.566) rotate(-90) scale(1 0.93)" gradientUnits="userSpaceOnUse">
      <stop offset="0" stop-color="#fd5"/>
      <stop offset="0.1" stop-color="#fd5"/>
      <stop offset="0.5" stop-color="#ff543e"/>
      <stop offset="1" stop-color="#c837ab"/>
    </radialGradient>
    <radialGradient id="radial-gradient-2" cx="-41.879" cy="18.004" r="110.753" gradientTransform="matrix(0.196, 0.98, -4.042, 0.809, 39.113, 44.484)" gradientUnits="userSpaceOnUse">
      <stop offset="0" stop-color="#3771c8"/>
      <stop offset="0.128" stop-color="#3771c8"/>
      <stop offset="1" stop-color="#60f" stop-opacity="0"/>
    </radialGradient>
  </defs>
  <g id="グループ_5" data-name="グループ 5" transform="translate(-1309 -53)">
    <g id="Instagram_logo_2016" transform="translate(1383 127.03)">
      <path id="パス_11" data-name="パス 11" d="M125.036,0C72.85,0,57.588.054,54.621.3c-10.709.89-17.373,2.576-24.634,6.191A49.9,49.9,0,0,0,15.625,17q-11.9,12.349-14.478,30.4C.3,53.251.055,54.443.005,84.3c-.019,9.952,0,23.049,0,40.617,0,52.143.058,67.39.308,70.351.865,10.421,2.5,16.977,5.96,24.149A52.657,52.657,0,0,0,40.4,247.295a88.685,88.685,0,0,0,18.15,2.4c3.1.135,34.647.231,66.218.231s63.141-.038,66.16-.192c8.46-.4,13.372-1.057,18.8-2.461a52.337,52.337,0,0,0,34.128-27.937c3.394-7,5.114-13.8,5.893-23.682.169-2.153.24-36.487.24-70.774s-.077-68.563-.246-70.717c-.788-10.036-2.509-16.785-6.012-23.918a49.543,49.543,0,0,0-10.7-14.659c-8.269-7.9-18.383-12.705-30.434-14.443C196.762.3,195.6.052,165.72,0Z" transform="translate(1.004 1)" fill="url(#radial-gradient)"/>
      <path id="パス_12" data-name="パス 12" d="M125.036,0C72.85,0,57.588.054,54.621.3c-10.709.89-17.373,2.576-24.634,6.191A49.9,49.9,0,0,0,15.625,17q-11.9,12.349-14.478,30.4C.3,53.251.055,54.443.005,84.3c-.019,9.952,0,23.049,0,40.617,0,52.143.058,67.39.308,70.351.865,10.421,2.5,16.977,5.96,24.149A52.657,52.657,0,0,0,40.4,247.295a88.685,88.685,0,0,0,18.15,2.4c3.1.135,34.647.231,66.218.231s63.141-.038,66.16-.192c8.46-.4,13.372-1.057,18.8-2.461a52.337,52.337,0,0,0,34.128-27.937c3.394-7,5.114-13.8,5.893-23.682.169-2.153.24-36.487.24-70.774s-.077-68.563-.246-70.717c-.788-10.036-2.509-16.785-6.012-23.918a49.543,49.543,0,0,0-10.7-14.659c-8.269-7.9-18.383-12.705-30.434-14.443C196.762.3,195.6.052,165.72,0Z" transform="translate(1.004 1)" fill="url(#radial-gradient-2)"/>
      <path id="パス_13" data-name="パス 13" d="M110.3,18c-25.064,0-28.21.11-38.054.558-9.825.45-16.531,2.005-22.4,4.288A45.191,45.191,0,0,0,33.495,33.487,45.3,45.3,0,0,0,22.843,49.834C20.555,55.7,19,62.412,18.556,72.233,18.115,82.078,18,85.225,18,110.289s.112,28.2.558,38.044c.452,9.825,2.007,16.531,4.288,22.4a47.227,47.227,0,0,0,26.987,27c5.872,2.282,12.58,3.838,22.4,4.288,9.844.448,12.988.558,38.05.558s28.2-.11,38.046-.558c9.825-.45,16.539-2.005,22.411-4.288a47.286,47.286,0,0,0,26.989-27c2.269-5.87,3.826-12.578,4.288-22.4.442-9.844.558-12.982.558-38.046s-.115-28.21-.558-38.054c-.461-9.825-2.019-16.531-4.288-22.4A45.3,45.3,0,0,0,187.08,33.487a45.1,45.1,0,0,0-16.343-10.642c-5.883-2.282-12.594-3.838-22.419-4.288C138.474,18.11,135.34,18,110.268,18Zm-8.279,16.631c2.457,0,5.2,0,8.279,0,24.641,0,27.562.088,37.293.531,9,.411,13.882,1.915,17.135,3.178a28.541,28.541,0,0,1,10.606,6.9,28.642,28.642,0,0,1,6.906,10.613c1.263,3.249,2.769,8.133,3.178,17.131.442,9.729.538,12.651.538,37.281s-.1,27.552-.538,37.281c-.411,9-1.915,13.882-3.178,17.131a30.6,30.6,0,0,1-17.512,17.5c-3.249,1.269-8.137,2.769-17.135,3.18-9.729.442-12.651.538-37.293.538s-27.564-.1-37.293-.538c-9-.415-13.882-1.919-17.137-3.182a30.576,30.576,0,0,1-17.52-17.51c-1.263-3.249-2.769-8.133-3.178-17.131-.442-9.729-.531-12.651-.531-37.3s.088-27.552.531-37.281c.411-9,1.915-13.882,3.178-17.135a30.585,30.585,0,0,1,17.52-17.52C59.121,37.04,64.006,35.541,73,35.127c8.514-.385,11.813-.5,29.013-.519ZM159.56,49.955a11.073,11.073,0,1,0,11.075,11.071A11.073,11.073,0,0,0,159.56,49.955ZM110.3,62.895a47.39,47.39,0,1,0,47.387,47.394A47.4,47.4,0,0,0,110.3,62.895Zm0,16.631a30.763,30.763,0,1,1-30.763,30.763A30.763,30.763,0,0,1,110.3,79.526Z" transform="translate(15.685 15.686)" fill="#fff"/>
    </g>
    <rect id="長方形_5" data-name="長方形 5" width="400" height="400" transform="translate(1309 53)" fill="none"/>
  </g>
</svg>
