<svg id="instagram" xmlns="http://www.w3.org/2000/svg" width="511.7" height="511.9" viewBox="0 0 511.7 511.9">
  <path id="パス_6" data-name="パス 6" d="M256,46.1c68.4,0,76.5.3,103.4,1.5,25,1.1,38.5,5.3,47.5,8.8a79.169,79.169,0,0,1,29.4,19.1,80.225,80.225,0,0,1,19.2,29.4c3.5,9,7.7,22.6,8.8,47.5,1.2,27,1.5,35.1,1.5,103.4s-.3,76.5-1.5,103.4c-1.1,25-5.3,38.5-8.8,47.5a79.17,79.17,0,0,1-19.1,29.4A80.224,80.224,0,0,1,407,455.3c-9,3.5-22.6,7.7-47.5,8.8-27,1.2-35.1,1.5-103.4,1.5s-76.5-.3-103.4-1.5c-25-1.1-38.5-5.3-47.5-8.8a79.17,79.17,0,0,1-29.4-19.1,80.225,80.225,0,0,1-19.2-29.4c-3.5-9-7.7-22.6-8.8-47.5-1.2-27-1.5-35.1-1.5-103.4s.3-76.5,1.5-103.4c1.1-25,5.3-38.5,8.8-47.5A79.169,79.169,0,0,1,75.7,75.6a80.225,80.225,0,0,1,29.4-19.2c9-3.5,22.6-7.7,47.5-8.8C179.5,46.4,187.6,46.1,256,46.1ZM256,0c-69.5,0-78.2.3-105.5,1.5-27.2,1.2-45.9,5.6-62.1,11.9A124.949,124.949,0,0,0,43,43,125.434,125.434,0,0,0,13.4,88.3C7.1,104.6,2.7,123.2,1.5,150.4.3,177.8,0,186.5,0,256s.3,78.2,1.5,105.5c1.2,27.2,5.6,45.9,11.9,62.1A124.948,124.948,0,0,0,43,469a125.135,125.135,0,0,0,45.3,29.5c16.3,6.3,34.9,10.7,62.1,11.9,27.3,1.2,36,1.5,105.5,1.5s78.2-.3,105.5-1.5c27.2-1.2,45.9-5.6,62.1-11.9a130.785,130.785,0,0,0,74.8-74.8c6.3-16.3,10.7-34.9,11.9-62.1,1.2-27.3,1.5-36,1.5-105.5s-.3-78.2-1.5-105.5c-1.2-27.2-5.6-45.9-11.9-62.1A119.906,119.906,0,0,0,469,43a125.136,125.136,0,0,0-45.3-29.5C407.4,7.2,388.8,2.8,361.6,1.6,334.2.3,325.5,0,256,0Z" fill="#212121"/>
  <path id="パス_7" data-name="パス 7" d="M256,124.5A131.5,131.5,0,1,0,387.5,256,131.5,131.5,0,0,0,256,124.5Zm0,216.8a85.494,85.494,0,1,1,.013,0Z" fill="#212121"/>
  <path id="パス_8" data-name="パス 8" d="M423.4,119.3a30.7,30.7,0,1,1-30.7-30.7,30.7,30.7,0,0,1,30.7,30.7Z" fill="#212121"/>
</svg>
