<svg xmlns="http://www.w3.org/2000/svg" width="512.1" height="415.945" viewBox="0 0 512.1 415.945">
  <path id="twitter" d="M512,113.2a207.167,207.167,0,0,1-60.3,16.5,105.637,105.637,0,0,0,46.2-58.1,211.238,211.238,0,0,1-66.7,25.5,105.164,105.164,0,0,0-179,95.8A298.127,298.127,0,0,1,35.7,83.1,105.178,105.178,0,0,0,68.2,223.3a105.152,105.152,0,0,1-47.6-13.1v1.3a105.055,105.055,0,0,0,84.32,103,105.216,105.216,0,0,1-27.72,3.7,108.049,108.049,0,0,1-19.8-1.9,105.37,105.37,0,0,0,98.1,73A210.673,210.673,0,0,1,25,434.3,208.829,208.829,0,0,1-.1,432.8,297.115,297.115,0,0,0,161,480c193.2,0,298.9-160.1,298.9-298.9,0-4.6-.1-9.1-.3-13.6A211.441,211.441,0,0,0,512,113.2Z" transform="translate(0.1 -64.055)" fill="#212121"/>
</svg>
