<svg xmlns="http://www.w3.org/2000/svg" width="400" height="400" viewBox="0 0 400 400">
  <g id="グループ_4" data-name="グループ 4" transform="translate(-1389 -684)">
    <rect id="長方形_4" data-name="長方形 4" width="400" height="400" transform="translate(1389 684)" fill="none"/>
    <g id="g10" transform="translate(1464 961.333)">
      <g id="g12" transform="translate(0 -165.333)">
        <path id="path14" d="M244.776-137.829a31.409,31.409,0,0,0-22.1-22.246c-19.5-5.259-97.673-5.259-97.673-5.259s-78.177,0-97.673,5.259a31.41,31.41,0,0,0-22.1,22.246C0-118.206,0-77.265,0-77.265S0-36.324,5.224-16.7a31.415,31.415,0,0,0,22.1,22.246C46.823,10.8,125,10.8,125,10.8s78.178,0,97.673-5.257a31.413,31.413,0,0,0,22.1-22.246C250-36.324,250-77.265,250-77.265s0-40.941-5.224-60.564" transform="translate(0 165.333)" fill="#ed1d24"/>
        <path id="path16" d="M93.333-47.775l61.333-34.89L93.333-117.558Z" transform="translate(8.257 170.735)" fill="#fff"/>
      </g>
    </g>
  </g>
</svg>
