<?xml version="1.0" encoding="utf-8"?>
<!-- Generator: Adobe Illustrator 23.0.4, SVG Export Plug-In . SVG Version: 6.00 Build 0)  -->
<svg version="1.1" id="レイヤー_1" xmlns="http://www.w3.org/2000/svg" xmlns:xlink="http://www.w3.org/1999/xlink" x="0px"
	 y="0px" viewBox="0 0 258.1 184.2" style="enable-background:new 0 0 258.1 184.2;" xml:space="preserve">
<style type="text/css">
	.st0{fill:#FFFFFF;}
</style>
<title>アセット 1</title>
<g>
	<path class="st0" d="M131.7,0.1L131.7,0.1L125.6,0v0.1c-24,0.8-49.2,7.8-71.6,19.9C30.1,32.8,10.9,50.6,0,70.1l18.3,10.3
		c9-16,25.4-31,45.7-41.9s43.1-17.1,64.7-17.4c44.2,0.6,92.6,26.3,111.2,59.3l18.3-10.3C236.2,31.1,182.7,1.8,131.7,0.1z"/>
	<path class="st0" d="M132.7,47.1c-0.9,0-1.8,0-2.7,0h-1.5c-17.9,0.3-34.2,3.9-48.3,10.7c-17.3,8.3-31.6,21.8-40.8,38.7l20.1,11.2
		c17-30.3,46.9-37.3,70.1-37.7h1.1c28.6,0.3,55.9,15.3,66.7,36.9L218,96.7C203.4,67.6,169.5,48,132.7,47.1z"/>
	<path class="st0" d="M170.8,109.1c-5.2-4.7-11.8-7-19.7-7c-11.6,1.7-19,5.8-22,12.3c-3.1-6.5-10.4-10.6-22-12.3
		c-8,0-14.5,2.3-19.7,7c-5.2,4.7-7.8,10.7-7.7,18.1c-0.3,8.2,3,17,10.1,26.4c8.9,10.8,22.3,21,39.4,30.6
		c17.1-9.6,30.6-19.8,39.4-30.6c7-9.3,10.4-18.1,10.1-26.4C178.5,119.8,175.9,113.8,170.8,109.1z"/>
</g>
</svg>
