<svg id="レイヤー_1" data-name="レイヤー 1" xmlns="http://www.w3.org/2000/svg" xmlns:xlink="http://www.w3.org/1999/xlink" viewBox="0 0 512.32 419.6"><defs><style>.cls-1{fill:none;}.cls-2{clip-path:url(#clip-path);}.cls-3{clip-path:url(#clip-path-3);}.cls-4{opacity:0.45;}.cls-5{clip-path:url(#clip-path-4);}.cls-6{fill:#fff;}.cls-7{fill:#f5e1ed;}.cls-8{fill:#e8eaf4;}.cls-9{fill:#d3ecf2;}.cls-10{fill:#e3f1e0;}.cls-11{fill:#fafbea;}.cls-12{fill:#fef0de;}.cls-13{fill:#f8cfd4;}.cls-14{fill:#efa2c5;}</style><clipPath id="clip-path" transform="translate(-151.98 -87.34)"><rect class="cls-1" x="100.05" y="76.83" width="620.5" height="441.34"/></clipPath><clipPath id="clip-path-3" transform="translate(-151.98 -87.34)"><rect class="cls-1" x="118.5" y="77.65" width="602.04" height="436.79"/></clipPath><clipPath id="clip-path-4" transform="translate(-151.98 -87.34)"><rect class="cls-1" x="411.71" y="116.42" width="23.65" height="23.77"/></clipPath></defs><title>logo2</title><g class="cls-2"><g class="cls-2"><g class="cls-3"><g class="cls-4"><g class="cls-5"><g class="cls-5"><path class="cls-6" d="M424.55,117.08l2.77,5.92a1.17,1.17,0,0,0,.86.65l6.21.95a1.21,1.21,0,0,1,.62,2l-4.49,4.61a1.22,1.22,0,0,0-.33,1l1.06,6.51a1.14,1.14,0,0,1-1.64,1.25L424.06,137a1.09,1.09,0,0,0-1.05,0l-5.56,3.07a1.14,1.14,0,0,1-1.64-1.25l1.06-6.51a1.24,1.24,0,0,0-.32-1l-4.5-4.61a1.21,1.21,0,0,1,.63-2l6.21-.95a1.13,1.13,0,0,0,.85-.65l2.78-5.92a1.11,1.11,0,0,1,2,0" transform="translate(-151.98 -87.34)"/></g></g></g><g class="cls-4"><g class="cls-5"><g class="cls-5"><path class="cls-6" d="M424.55,117.08l2.77,5.92a1.17,1.17,0,0,0,.86.65l6.21.95a1.21,1.21,0,0,1,.62,2l-4.49,4.61a1.22,1.22,0,0,0-.33,1l1.06,6.51a1.14,1.14,0,0,1-1.64,1.25L424.06,137a1.09,1.09,0,0,0-1.05,0l-5.56,3.07a1.14,1.14,0,0,1-1.64-1.25l1.06-6.51a1.24,1.24,0,0,0-.32-1l-4.5-4.61a1.21,1.21,0,0,1,.63-2l6.21-.95a1.13,1.13,0,0,0,.85-.65l2.78-5.92a1.11,1.11,0,0,1,2,0" transform="translate(-151.98 -87.34)"/></g></g></g><path class="cls-7" d="M408.15,87.34c-141.34,0-255.92,93.93-255.92,209.8s114.58,209.8,255.92,209.8S664.06,413,664.06,297.14,549.48,87.34,408.15,87.34m0,401.58c-129.2,0-233.93-85.86-233.93-191.78S279,105.36,408.15,105.36s233.93,85.87,233.93,191.78S537.34,488.92,408.15,488.92" transform="translate(-151.98 -87.34)"/><path class="cls-8" d="M408.15,105.36c-129.2,0-233.93,85.87-233.93,191.78S279,488.92,408.15,488.92s233.93-85.86,233.93-191.78S537.34,105.36,408.15,105.36m0,365.54c-117.06,0-211.95-77.79-211.95-173.76s94.89-173.75,212-173.75,211.94,77.79,211.94,173.75S525.2,470.9,408.15,470.9" transform="translate(-151.98 -87.34)"/><path class="cls-9" d="M408.15,123.39c-117.06,0-211.95,77.79-211.95,173.75s94.89,173.76,212,173.76,211.94-77.79,211.94-173.76S525.2,123.39,408.15,123.39m0,329.49c-104.92,0-190-69.73-190-155.74s85.05-155.73,190-155.73,190,69.72,190,155.73-85.05,155.74-190,155.74" transform="translate(-151.98 -87.34)"/><path class="cls-10" d="M408.15,141.41c-104.92,0-190,69.72-190,155.73s85.05,155.74,190,155.74,190-69.73,190-155.74-85.05-155.73-190-155.73m0,293.44c-92.78,0-168-61.65-168-137.71s75.2-137.71,168-137.71,168,61.66,168,137.71-75.21,137.71-168,137.71" transform="translate(-151.98 -87.34)"/><path class="cls-11" d="M408.15,159.43c-92.78,0-168,61.66-168,137.71s75.2,137.71,168,137.71,168-61.65,168-137.71-75.21-137.71-168-137.71m0,257.4c-80.63,0-146-53.58-146-119.69s65.37-119.69,146-119.69,146,53.59,146,119.69-65.36,119.69-146,119.69" transform="translate(-151.98 -87.34)"/><path class="cls-12" d="M408.15,177.45c-80.63,0-146,53.59-146,119.69s65.37,119.69,146,119.69,146-53.58,146-119.69-65.36-119.69-146-119.69m0,221.36c-68.49,0-124-45.52-124-101.67s55.53-101.66,124-101.66,124,45.51,124,101.66-55.52,101.67-124,101.67" transform="translate(-151.98 -87.34)"/><path class="cls-13" d="M408.15,195.48c-68.49,0-124,45.51-124,101.66s55.53,101.67,124,101.67,124-45.52,124-101.67-55.52-101.66-124-101.66m0,185.31c-56.35,0-102-37.45-102-83.65s45.68-83.64,102-83.64,102,37.45,102,83.64-45.68,83.65-102,83.65" transform="translate(-151.98 -87.34)"/><path class="cls-6" d="M663.46,289.29c-4.11-19.22-22.16-32.1-42.1-31.26A38.17,38.17,0,0,0,625,240.74c-.55-22-19.74-39.33-42.87-38.7a42.47,42.47,0,0,0-35.69,20.76c-6.38-14.82-21.89-25.05-39.76-24.56A43,43,0,0,0,478,210.11c-6.95-13.56-21.75-22.71-38.67-22.24-19.49.53-35.55,13.64-39.8,30.91A42.1,42.1,0,0,0,362,198.59a43.08,43.08,0,0,0-28.25,11.46c-9-19.79-33.06-28.63-54.13-19.76a42.44,42.44,0,0,0-21.88,20.6,42.84,42.84,0,0,0-27.28-8.69c-23.13.63-41.44,19-40.9,41a38.24,38.24,0,0,0,3.52,15.06h-.19c-23.13.63-41.44,19-40.89,41s19.73,39.33,42.87,38.7l1.8-.09a38,38,0,0,0-1.52,11.63c.55,22,19.74,39.33,42.87,38.69a42.6,42.6,0,0,0,34.18-18.35A42.13,42.13,0,0,0,309,388.74a42.7,42.7,0,0,0,32.54-16.12c3.95,18.55,21.42,32.25,42,31.68,17.2-.47,31.73-10.73,37.83-25A43.51,43.51,0,0,0,475,371.05c3.22,19.4,21.12,33.95,42.35,33.37,19.47-.54,35.52-13.62,39.79-30.88a42.41,42.41,0,0,0,34.37,15.62c23.13-.64,41.45-19,40.9-41a38.17,38.17,0,0,0-2-11.21l.39-.08c22.65-4.76,37.27-26.06,32.66-47.59m-314,50.91-.42.54c0-.13-.05-.26-.08-.39l.5-.15" transform="translate(-151.98 -87.34)"/><path class="cls-14" d="M206.58,268.41q4.46-.54,13.17.61t11.39,4.48q2.67,3.33,1.71,8.51a34.3,34.3,0,0,1-3.15,9.46q5.28,1.08,11.38,2.64,1.38-6.92,5.6-7.59A5.63,5.63,0,0,1,253,289.3q2.06,3.46-.75,9.56a18.42,18.42,0,0,1,7.1,4.34,7,7,0,0,1,2.12,5.22,5.27,5.27,0,0,1-3.05,4.34c-1.92,1.09-4.85.38-8.78-2.1a24.73,24.73,0,0,1-3.84,7.22,22.33,22.33,0,0,1-6.11,5.09q-3.84,2.26-6.07-.45c-1.49-1.8-1.47-3.78,0-5.93a69.33,69.33,0,0,0,5-8.78,32,32,0,0,0-11.45-2.71,28.79,28.79,0,0,1-6.86,14.44q-5.15,5.56-10.88,5.36a18.12,18.12,0,0,1-9.91-3.12c-2.79-1.94-4.71-5-5.76-9.12a19.5,19.5,0,0,1,.58-11.94,14.22,14.22,0,0,1,7-8.13q4.83-2.41,15.81-2.27a16.2,16.2,0,0,0,.89-7.73q-14.88-.13-18.73-1.5t-4.83-4.4c-.67-2,.16-4,2.47-5.94s5.52-2.7,9.64-2.34M215,304a9.4,9.4,0,0,0-6.07-.4,5,5,0,0,0-3.7,3.59A4.24,4.24,0,0,0,207,312c1.67,1.33,3.22,1.33,4.63,0s2.56-4,3.43-8" transform="translate(-151.98 -87.34)"/><path class="cls-14" d="M273.12,275.19a5.64,5.64,0,0,1,5.73,1,6.66,6.66,0,0,1,2.68,4.75q.17,2.67-2.44,10.81,9-1.9,14.58-1.29a27,27,0,0,1,10.94,3.8q5.36,3.18,7,10.78a13.86,13.86,0,0,1-3.91,13.36q-5.6,5.76-14.68,6.51c-6.06.49-9.8-.45-11.22-2.85s-.23-3.91,3.57-4.54a15.3,15.3,0,0,0,9-4.55q3.33-3.58-1.44-7.79t-17.87,1.35q-4.94,1.56-8.23-1.49-2.47-3.87-.93-14.88t7.17-15m15.51-9.49q9.6-.81,19.34,6t7.93,11c-1.22,2.76-3.82,4-7.83,3.8s-9-2.24-14.92-6-9-6.93-9-9.42,1.41-4.27,4.53-5.36" transform="translate(-151.98 -87.34)"/><path class="cls-14" d="M347.83,269.7q5.76-2.64,9.95-.91a7.73,7.73,0,0,1,4.87,6.54q-.34,4.95-3.81,6.81a63,63,0,0,0-7.51,4.89,133.78,133.78,0,0,0-12.62,11.63,103.51,103.51,0,0,0,7.92,7.59,98.24,98.24,0,0,0,9.85,7.05q6.3,5.08,1.78,10.38a13.78,13.78,0,0,1-8,.95,24.32,24.32,0,0,1-8.75-4,99,99,0,0,1-10.22-8,47.22,47.22,0,0,1-8.85-10.21q-3.43-5.42,4.94-15.9a64.29,64.29,0,0,1,20.44-16.85" transform="translate(-151.98 -87.34)"/><path class="cls-14" d="M376.58,268.35q5.69-.48,12.48-.48t13.59.48c4.52.31,7.61,1.06,9.26,2.23s2.38,3.24,2.19,6.18-3.93,7.2-11.25,12.81q11,4.33,11.8,13.49t-4.66,15q-5.49,5.83-15.65,6.64t-14.81-3.42a11.47,11.47,0,0,1-4-10.14,10.05,10.05,0,0,1,5.76-8.47,11.83,11.83,0,0,1,10.36-.38q5.22,2.21,6.59,10.21a7.94,7.94,0,0,0,4.94-6.17q.83-4.41-1.86-6.51t-9.63-2.68q-7-.57-7.72-3.63c-.51-2,.32-3.84,2.47-5.42s4.94-3.62,8.37-6.11q-15.37.15-19.83-.16a9.57,9.57,0,0,1-7-3.33,5.16,5.16,0,0,1-.75-6.27q1.79-3.25,9.4-3.86m6.79,44.75a3.3,3.3,0,0,0,1,2.44,3.5,3.5,0,0,0,4.94,0,3.41,3.41,0,0,0,0-4.88,3.5,3.5,0,0,0-4.94,0,3.3,3.3,0,0,0-1,2.44" transform="translate(-151.98 -87.34)"/><path class="cls-14" d="M438.72,309.63a13.1,13.1,0,0,1,7.84,2.32c2.16,1.55,3.25,3.41,3.25,5.58a6.79,6.79,0,0,1-3.25,5.62,14.27,14.27,0,0,1-15.63,0,6.79,6.79,0,0,1-3.25-5.62c0-2.17,1.09-4,3.25-5.58a13,13,0,0,1,7.79-2.32m-5.37,5.3a2.11,2.11,0,0,0-1,1.8,3.74,3.74,0,0,0,1.3,2.62,17.62,17.62,0,0,0,5,3s0,0,.06,0v0a18.53,18.53,0,0,0,5.13-3.13,3.47,3.47,0,0,0,1.24-2.66c-.2-1.21-1.07-2-2.6-2.24a3.39,3.39,0,0,0-1.36-.08,2.84,2.84,0,0,0-2.41,1.18c-.4-.65-1.34-1.06-2.84-1.22a4.36,4.36,0,0,0-2.53.69" transform="translate(-151.98 -87.34)"/><path class="cls-14" d="M487.24,289.44q-6.66.68-6.52,7.53c-.13,4,1.76,6.62,5.7,7.79a12.58,12.58,0,0,0,8.71-.95,9.55,9.55,0,0,1,5.35-2.13,4.05,4.05,0,0,1,4.46,2.54q2.4,5.76-1.1,10.37a16.88,16.88,0,0,1-9.4,7,51.41,51.41,0,0,1-15.5.34,21,21,0,0,1-13-7q-5.7-5.49-6.11-16.14a25,25,0,0,1,18.52-26.91,28,28,0,0,1,13.72-.14,21,21,0,0,1,10.16,6.85,16.68,16.68,0,0,1,3.56,9.7,6.76,6.76,0,0,1-.68,3.86,4.46,4.46,0,0,1-4,2.14,11.27,11.27,0,0,1-4.6-1q-3.22-3.66-9.26-3.86" transform="translate(-151.98 -87.34)"/><path class="cls-14" d="M536.09,322.26q-11.73-.21-19.07-7.53-6.45-7.32-6.11-18.24a35.58,35.58,0,0,1,1.61-9.15,22.14,22.14,0,0,1,4.5-8,25.34,25.34,0,0,1,7.71-6.17,26.05,26.05,0,0,1,11.36-2.37q11.25.21,17.83,7.53a26.52,26.52,0,0,1,7.41,18.17,35.38,35.38,0,0,1-1.61,9.22,22.35,22.35,0,0,1-4.56,8.07,22,22,0,0,1-8.58,6.14,29.05,29.05,0,0,1-10.49,2.34m-8.3-22.38a8.35,8.35,0,0,0,2.43,6,8.49,8.49,0,0,0,6,2.65,8.28,8.28,0,0,0,5.9-2.65,8.48,8.48,0,0,0,0-12.1,7.88,7.88,0,0,0-5.9-2.47,8.09,8.09,0,0,0-6,2.47,8.33,8.33,0,0,0-2.43,6.07" transform="translate(-151.98 -87.34)"/><path class="cls-14" d="M575.12,271.13a4.66,4.66,0,0,1,3.78,3.46,29.72,29.72,0,0,1,.75,5.08,10,10,0,0,1,8.13-4,12.67,12.67,0,0,1,8.47,2.88c1.33,2,2.93,3,4.81,2.92a5.68,5.68,0,0,0,4.18-1.7,16.46,16.46,0,0,1,2.92-2.34,14.58,14.58,0,0,1,3.15-1.46,13,13,0,0,1,5.11-.13,12.41,12.41,0,0,1,7.86,2.74,18.4,18.4,0,0,1,4.9,6.48,31.85,31.85,0,0,1,2.88,14,51.59,51.59,0,0,1-1.92,15.32,11.93,11.93,0,0,1-2.88,5.8c-1.51,1.69-3.63,2.34-6.38,1.93q-3.09-1.15-3.09-3.76a47.73,47.73,0,0,1,.42-5.93,30,30,0,0,0-.14-7.46,5.23,5.23,0,0,0-5.59-4.34c-3,0-4.57,1.62-4.7,4.88a43.48,43.48,0,0,1-1,10.64c-.78,3.48-2.65,5.27-5.63,5.36a4.8,4.8,0,0,1-4.49-2.27,12.64,12.64,0,0,1-1.54-5.77q-.21-3.48-.28-9.32-1.57-4.41-7.13-3.52-4.53,2-3.85,7.86a54.66,54.66,0,0,1,.14,5.9,12.75,12.75,0,0,1-1.27,5.83,4,4,0,0,1-4.08,2.11,9.56,9.56,0,0,1-6.79-4.55,24.44,24.44,0,0,1-3.84-7.73,64,64,0,0,1-2.68-13.22,67.63,67.63,0,0,1-.34-13.22,31.94,31.94,0,0,1,1-8.28c2-3.7,5-5.1,9.12-4.2" transform="translate(-151.98 -87.34)"/></g></g></g></svg>