<svg id="step-3" xmlns="http://www.w3.org/2000/svg" viewBox="0 0 956.76 714.83"><defs><style>.cls-1,.cls-9{fill:#fff;}.cls-1{opacity:0.45;isolation:isolate;}.cls-2{fill:#f5e1ed;}.cls-3{fill:#eee2ef;}.cls-4{fill:#d3ecf2;}.cls-5{fill:#e4f1e0;}.cls-6{fill:#fafbea;}.cls-7{fill:#fef0de;}.cls-8{fill:#f8cfd4;}.cls-10{fill:#efa2c4;}</style></defs><title>logo</title><g id="レイヤー_1-2" data-name="レイヤー 1-2"><path class="cls-1" d="M537.78,50.66l4.73,10.09a1.94,1.94,0,0,0,1.45,1.1l10.58,1.62a2.06,2.06,0,0,1,1.62,2.42,2.11,2.11,0,0,1-.55,1L548,74.78a2.07,2.07,0,0,0-.56,1.79l1.81,11.09a2,2,0,0,1-2.8,2.13L537,84.56a1.84,1.84,0,0,0-1.79,0l-9.47,5.23a2,2,0,0,1-2.62-.83,2,2,0,0,1-.17-1.3l1.8-11.09a2.08,2.08,0,0,0-.55-1.79l-7.66-7.85a2.06,2.06,0,0,1,0-2.91,2.11,2.11,0,0,1,1-.55l10.58-1.62a1.91,1.91,0,0,0,1.45-1.1l4.73-10.09a1.89,1.89,0,0,1,2.52-.89A1.92,1.92,0,0,1,537.78,50.66Z" transform="translate(0.02)"/><path class="cls-1" d="M537.78,50.66l4.73,10.09a1.94,1.94,0,0,0,1.45,1.1l10.58,1.62a2.06,2.06,0,0,1,1.62,2.42,2.11,2.11,0,0,1-.55,1L548,74.78a2.07,2.07,0,0,0-.56,1.79l1.81,11.09a2,2,0,0,1-2.8,2.13L537,84.56a1.84,1.84,0,0,0-1.79,0l-9.47,5.23a2,2,0,0,1-2.62-.83,2,2,0,0,1-.17-1.3l1.8-11.09a2.08,2.08,0,0,0-.55-1.79l-7.66-7.85a2.06,2.06,0,0,1,0-2.91,2.11,2.11,0,0,1,1-.55l10.58-1.62a1.91,1.91,0,0,0,1.45-1.1l4.73-10.09a1.89,1.89,0,0,1,2.52-.89A1.92,1.92,0,0,1,537.78,50.66Z" transform="translate(0.02)"/><path class="cls-2" d="M478.37,0c-240.78,0-436,160-436,357.42s195.19,357.41,436,357.41,436-160,436-357.41S719.15,0,478.37,0Zm0,684.13c-220.1,0-398.52-146.27-398.52-326.71S258.27,30.7,478.37,30.7,876.9,177,876.9,357.42,698.47,684.13,478.37,684.13Z" transform="translate(0.02)"/><path class="cls-3" d="M478.37,30.7C258.27,30.7,79.85,177,79.85,357.42S258.27,684.13,478.37,684.13,876.9,537.86,876.9,357.42,698.47,30.7,478.37,30.7Zm0,622.73c-199.41,0-361.07-132.53-361.07-296s161.66-296,361.07-296S839.44,194,839.44,357.43,677.79,653.43,478.37,653.43Z" transform="translate(0.02)"/><path class="cls-4" d="M478.37,61.41c-199.41,0-361.07,132.52-361.07,296s161.66,296,361.07,296,361.07-132.53,361.07-296S677.79,61.41,478.37,61.41Zm0,561.31c-178.73,0-323.62-118.78-323.62-265.3S299.64,92.11,478.37,92.11,802,210.89,802,357.42,657.1,622.72,478.37,622.72Z" transform="translate(0.02)"/><path class="cls-5" d="M478.37,92.11c-178.73,0-323.62,118.78-323.62,265.31s144.89,265.3,323.62,265.3S802,503.94,802,357.42,657.1,92.11,478.37,92.11Zm0,499.91c-158,0-286.17-105-286.17-234.6S320.32,122.81,478.37,122.81s286.17,105,286.17,234.61S636.42,592,478.37,592Z" transform="translate(0.02)"/><path class="cls-6" d="M478.37,122.81c-158,0-286.17,105-286.17,234.61S320.32,592,478.37,592,764.54,487,764.54,357.4,636.42,122.81,478.37,122.81Zm0,438.51C341,561.32,229.65,470,229.65,357.42S341,153.52,478.37,153.52s248.72,91.29,248.72,203.9S615.73,561.32,478.37,561.32Z" transform="translate(0.02)"/><path class="cls-7" d="M478.37,153.52c-137.36,0-248.72,91.29-248.72,203.9S341,561.32,478.37,561.32,727.09,470,727.09,357.42,615.73,153.52,478.37,153.52Zm0,377.1c-116.68,0-211.27-77.55-211.27-173.2s94.59-173.2,211.27-173.2,211.27,77.54,211.27,173.2S595.05,530.62,478.37,530.62Z" transform="translate(0.02)"/><path class="cls-8" d="M478.37,184.22c-116.68,0-211.27,77.54-211.27,173.2s94.59,173.2,211.27,173.2,211.27-77.55,211.27-173.2S595.05,184.22,478.37,184.22Zm0,315.69c-96,0-173.81-63.79-173.81-142.49s77.82-142.5,173.81-142.5,173.82,63.8,173.82,142.5S574.37,499.91,478.37,499.91Z" transform="translate(0.02)"/><path class="cls-9" d="M955.16,342c-7.68-35.89-41.39-60-78.63-58.37a71.32,71.32,0,0,0,6.84-32.29c-1-41.09-36.86-73.45-80.06-72.26-28.82.79-53.62,16.32-66.64,38.76C724.74,190.2,695.78,171.1,662.41,172a80.34,80.34,0,0,0-53.58,22.17c-13-25.31-40.62-42.4-72.21-41.54-36.39,1-66.38,25.47-74.33,57.73-13.71-23.19-40.13-38.51-70.1-37.69a80.32,80.32,0,0,0-52.76,21.39c-16.79-36.95-61.73-53.48-101.08-36.89a79.18,79.18,0,0,0-40.85,38.46,80.12,80.12,0,0,0-50.95-16.24c-43.2,1.18-77.39,35.46-76.37,76.55a71.09,71.09,0,0,0,6.57,28.13H76.4C33.2,285.26-1,319.54,0,360.63s36.86,73.45,80.06,72.27q1.69-.06,3.36-.18a71.54,71.54,0,0,0-2.83,21.72c1,41.09,36.86,73.45,80.06,72.27,26.85-.74,50.22-14.27,63.82-34.27,14.08,21.85,39.7,36.12,68.64,35.33a79.79,79.79,0,0,0,60.76-30.11c7.39,34.65,40,60.22,78.5,59.17,32.11-.88,59.24-20.05,70.63-46.72a81.21,81.21,0,0,0,100.15-15.39c6,36.24,39.45,63.4,79.09,62.32,36.36-1,66.34-25.44,74.31-57.65a79.18,79.18,0,0,0,64.19,29.15c43.2-1.18,77.39-35.45,76.38-76.55a71,71,0,0,0-3.71-20.93c.25-.05.49-.08.74-.14C936.46,422,963.76,382.24,955.16,342Z" transform="translate(0.02)"/><path class="cls-10" d="M130.08,311q7.63-.93,22.53,1t19.48,7.65c3,3.8,4,8.64,2.93,14.56a58.51,58.51,0,0,1-5.4,16.18q9,1.86,19.48,4.52,2.34-11.82,9.56-13t10.74,4.75q3.51,5.94-1.29,16.36,8.2,3.15,12.14,7.42t3.64,8.93q-.3,4.63-5.22,7.42t-15-3.6a42.07,42.07,0,0,1-6.59,12.43,37.71,37.71,0,0,1-10.45,8.7q-6.57,3.88-10.38-.75t.06-10.15a116.4,116.4,0,0,0,8.57-15,55.28,55.28,0,0,0-19.6-4.64q-2.92,15.19-11.73,24.71T135,407.61a30.83,30.83,0,0,1-17-5.36q-7.16-5-9.86-15.6a33.33,33.33,0,0,1,1-20.4q3.69-9.81,12-13.92t27-3.88q2.24-5.34,1.53-13.22-25.47-.24-32-2.56t-8.27-7.53q-1.71-5.22,4.22-10.15T130.08,311Zm14.44,60.88a16.31,16.31,0,0,0-10.39-.7,8.5,8.5,0,0,0-6.33,6.15q-1.35,4.77,2.93,8.18t7.92,0Q142.28,382.08,144.52,371.87Z" transform="translate(0.02)"/><path class="cls-10" d="M243.89,322.61a9.66,9.66,0,0,1,9.8,1.69q4.28,3.54,4.57,8.12t-4.16,18.49q15.36-3.3,24.9-2.24a46.43,46.43,0,0,1,18.71,6.5q9.15,5.44,12,18.44T303,396.46q-9.5,9.87-25,11.15t-19.18-4.87q-3.63-6.15,6.1-7.77t15.43-7.77q5.68-6.15-2.46-13.34t-30.57,2.32q-8.44,2.67-14.08-2.55Q229,367,231.66,348.17T243.89,322.61Zm26.52-16.23q16.43-1.38,33.08,10.32T317,335.46q-3.11,7.07-13.37,6.49t-25.48-10.34q-15.25-9.74-15.49-16.12t7.75-9.14Z" transform="translate(0.02)"/><path class="cls-10" d="M371.66,313.19q9.85-4.53,17-1.57t8.33,11.2q-.58,8.46-6.51,11.65a108.7,108.7,0,0,0-12.85,8.35q-6.92,5.16-21.58,19.89a173.16,173.16,0,0,0,13.55,13,167.41,167.41,0,0,0,16.83,12.06q10.8,8.7,3.05,17.74a23.38,23.38,0,0,1-13.66,1.62q-6.75-1.26-15-6.78a167.45,167.45,0,0,1-17.44-13.74,81.08,81.08,0,0,1-15.13-17.45q-5.87-9.27,8.45-27.19A110.14,110.14,0,0,1,371.66,313.19Z" transform="translate(0.02)"/><path class="cls-10" d="M420.82,310.87q9.74-.81,21.35-.81t23.24.81q11.61.84,15.83,3.83T485,325.25q-.47,7.56-19.24,21.92,18.76,7.44,20.18,23.08t-8,25.62q-9.39,10-26.75,11.37t-25.34-5.86q-8-7.25-6.93-17.33t9.86-14.5a20.27,20.27,0,0,1,17.72-.64q8.91,3.78,11.26,17.46a13.55,13.55,0,0,0,8.45-10.56q1.4-7.53-3.17-11.13t-16.49-4.58q-11.91-1-13.2-6.21t4.25-9.28q5.5-4,14.31-10.44-26.28.24-33.91-.29t-12-5.68q-4.35-5.16-1.29-10.73T420.82,310.87Zm11.62,76.54a5.63,5.63,0,0,0,1.76,4.2,6,6,0,0,0,8.44,0,5.83,5.83,0,0,0,.1-8.25l-.1-.11a6,6,0,0,0-8.44,0,5.65,5.65,0,0,0-1.76,4.16Z" transform="translate(0.02)"/><path class="cls-10" d="M527.09,381.48a22.45,22.45,0,0,1,13.42,4q5.55,4,5.55,9.54t-5.55,9.59a24.43,24.43,0,0,1-26.74,0q-5.55-4-5.54-9.61t5.54-9.54A22.36,22.36,0,0,1,527.09,381.48Zm-9.18,9.07a3.62,3.62,0,0,0-1.71,3.06c-.07,1.39.67,2.89,2.22,4.47a29.75,29.75,0,0,0,8.57,5.21c0-.05,0-.08.1-.08v.08a31.63,31.63,0,0,0,8.78-5.35c1.55-1.59,2.25-3.1,2.12-4.55q-.51-3.09-4.44-3.83a6,6,0,0,0-2.32-.15q-3,.22-4.14,2c-.67-1.11-2.29-1.81-4.84-2.1a7.42,7.42,0,0,0-4.34,1.24Z" transform="translate(0.02)"/><path class="cls-10" d="M610.08,346.94q-11.39,1.17-11.15,12.88-.34,10.32,9.74,13.33,8.69,1.74,14.9-1.62a16.52,16.52,0,0,1,9.15-3.66,7,7,0,0,1,7.63,4.35q4.11,9.87-1.88,17.74a28.9,28.9,0,0,1-16.07,12,87.35,87.35,0,0,1-26.52.58,36,36,0,0,1-22.29-11.94q-9.74-9.39-10.44-27.6a42.83,42.83,0,0,1,31.68-46,48.13,48.13,0,0,1,23.46-.23,36.1,36.1,0,0,1,17.37,11.71,28.55,28.55,0,0,1,6.1,16.58,11.52,11.52,0,0,1-1.18,6.61,7.56,7.56,0,0,1-6.8,3.65,18.86,18.86,0,0,1-7.86-1.68Q620.4,347.29,610.08,346.94Z" transform="translate(0.02)"/><path class="cls-10" d="M693.62,403.07q-20.07-.33-32.62-12.87-11-12.51-10.44-31.2a60.85,60.85,0,0,1,2.75-15.65A38,38,0,0,1,661,329.66a43.31,43.31,0,0,1,13.2-10.55q7.45-3.83,19.42-4.06,19.23.36,30.5,12.87A45.52,45.52,0,0,1,736.79,359,60.87,60.87,0,0,1,734,374.78a38,38,0,0,1-7.77,13.83,37.43,37.43,0,0,1-14.66,10.5A49.55,49.55,0,0,1,693.62,403.07Zm-14.2-38.27a14.27,14.27,0,0,0,4.17,10.32,14.5,14.5,0,0,0,10.26,4.49,14.24,14.24,0,0,0,10.09-4.53,14.49,14.49,0,0,0,.18-20.5l-.18-.19a13.53,13.53,0,0,0-10.09-4.24,13.81,13.81,0,0,0-10.26,4.24A14.19,14.19,0,0,0,679.42,364.8Z" transform="translate(0.02)"/><path class="cls-10" d="M760.38,315.61c3.59.93,5.75,2.9,6.45,5.92a51.2,51.2,0,0,1,1.29,8.69,17.12,17.12,0,0,1,13.9-6.9,21.75,21.75,0,0,1,14.49,4.93q3.4,5.22,8.22,5c3.2-.15,5.59-1.12,7.15-2.9a29.26,29.26,0,0,1,5-4,24.94,24.94,0,0,1,5.4-2.49c1.91-.62,4.83-.7,8.74-.23a21.28,21.28,0,0,1,13.43,4.69,31.55,31.55,0,0,1,8.39,11.07,54.57,54.57,0,0,1,4.93,24,88.94,88.94,0,0,1-3.3,26.22,20.24,20.24,0,0,1-4.93,9.91q-3.87,4.35-10.91,3.31-5.28-2-5.28-6.44a84,84,0,0,1,.71-10.14,50.47,50.47,0,0,0-.24-12.76q-1.87-7.41-9.56-7.42t-8,8.35a74.7,74.7,0,0,1-1.76,18.2q-2,8.94-9.62,9.17c-3.59,0-6.16-1.3-7.68-3.89a21.67,21.67,0,0,1-2.64-9.86q-.36-6-.47-15.94-2.7-7.53-12.2-6-7.75,3.48-6.57,13.45a97.1,97.1,0,0,1,.23,10.09,22,22,0,0,1-2.17,10q-2.05,3.83-7,3.6a16.36,16.36,0,0,1-11.62-7.77,42,42,0,0,1-6.57-13.22,109.84,109.84,0,0,1-4.59-22.64A115.45,115.45,0,0,1,743,337a54.93,54.93,0,0,1,1.76-14.15Q749.81,313.34,760.38,315.61Z" transform="translate(0.02)"/></g></svg>